# xmcd
#
# Track frame offsets:
#	150
#	17516
#	47158
#	68612
#	86232
#	99238
#	135048
#	157568
#	172890
#	192820
#
# Disc length: 2796 seconds
# Revision: 0
# Processed by: cddbd v1.5.2PL0 Copyright (c) Steve Scherf et al.
# Submitted via: dBpowerAMP V12.0
#
DISCID=640aea0a
DTITLE=Harvey Mandel - Cristo Redentor [Phillips] (L)
DYEAR=1968
DGENRE=Blues
TTITLE0=Cristo Redentor
TTITLE1=Before Six
TTITLE2=The Lark
TTITLE3=Snake
TTITLE4=Long Wait
TTITLE5=Wade In The Water
TTITLE6=Lights Out
TTITLE7=Bradley's Barn
TTITLE8=You Can't Tell Me
TTITLE9=Nashville 1 A.M.
EXTD=
EXTT0=
EXTT1=
EXTT2=
EXTT3=
EXTT4=
EXTT5=
EXTT6=
EXTT7=
EXTT8=
EXTT9=
PLAYORDER=
